<svg xmlns="http://www.w3.org/2000/svg" viewBox="0 0 64 64" fill="none">
  <rect width="64" height="64" rx="14" fill="#0a1418"/>
  <g transform="translate(8,8) scale(0.24)" stroke="#35e6d6" stroke-width="5.5" stroke-linecap="round" fill="none">
    <path d="M48 42 A78 78 0 0 1 158 38"/>
    <path d="M168 58 A78 78 0 0 1 172 142"/>
    <path d="M158 162 A78 78 0 0 1 48 158"/>
    <path d="M32 142 A78 78 0 0 1 36 52"/>
    <path d="M62 52 A58 58 0 0 1 144 48"/>
    <path d="M152 68 A58 58 0 0 1 154 132"/>
  </g>
  <g transform="translate(8,8) scale(0.24)" fill="#35e6d6">
    <circle cx="158" cy="38" r="5.5"/>
    <circle cx="172" cy="142" r="5"/>
    <circle cx="48" cy="158" r="5"/>
  </g>
</svg>
