<svg xmlns="http://www.w3.org/2000/svg" viewBox="0 0 420 100" fill="none" role="img" aria-label="Quobol">
  <!-- Circuit emblem -->
  <g transform="translate(8, 10)">
    <circle cx="40" cy="40" r="38" stroke="#35e6d6" stroke-width="2" fill="none" opacity="0.95"/>
    <circle cx="40" cy="40" r="28" stroke="#35e6d6" stroke-width="1.2" fill="none" opacity="0.4"/>
    <circle cx="40" cy="40" r="6" fill="#35e6d6"/>
    <circle cx="40" cy="12" r="3" fill="#35e6d6"/>
    <circle cx="40" cy="68" r="3" fill="#35e6d6"/>
    <circle cx="12" cy="40" r="3" fill="#35e6d6"/>
    <circle cx="68" cy="40" r="3" fill="#35e6d6"/>
    <circle cx="20" cy="20" r="2.5" fill="#35e6d6" opacity="0.85"/>
    <circle cx="60" cy="20" r="2.5" fill="#35e6d6" opacity="0.85"/>
    <circle cx="20" cy="60" r="2.5" fill="#35e6d6" opacity="0.85"/>
    <circle cx="60" cy="60" r="2.5" fill="#35e6d6" opacity="0.85"/>
    <path d="M40 18 V34 M40 46 V62 M18 40 H34 M46 40 H62" stroke="#35e6d6" stroke-width="1.5" stroke-linecap="round"/>
    <path d="M22 22 L32 32 M58 22 L48 32 M22 58 L32 48 M58 58 L48 48" stroke="#35e6d6" stroke-width="1.2" stroke-linecap="round" opacity="0.7"/>
    <path d="M40 6 V12 M40 68 V74 M6 40 H12 M68 40 H74" stroke="#35e6d6" stroke-width="1.5" stroke-linecap="round"/>
  </g>
  <!-- Wordmark -->
  <text x="108" y="62" fill="#f0f4f5" font-family="Space Grotesk, Segoe UI, Helvetica Neue, Arial, sans-serif" font-size="40" font-weight="700" letter-spacing="5">QUOBOL</text>
</svg>
