<svg xmlns="http://www.w3.org/2000/svg" viewBox="0 0 200 200" fill="none" role="img" aria-label="Quobol emblem">
  <defs>
    <filter id="glow" x="-40%" y="-40%" width="180%" height="180%">
      <feGaussianBlur stdDeviation="2.2" result="b"/>
      <feMerge>
        <feMergeNode in="b"/>
        <feMergeNode in="SourceGraphic"/>
      </feMerge>
    </filter>
  </defs>
  <g filter="url(#glow)" stroke="#35e6d6" stroke-width="5.5" stroke-linecap="round" fill="none">
    <!-- Outer arcs -->
    <path d="M48 42 A78 78 0 0 1 158 38"/>
    <path d="M168 58 A78 78 0 0 1 172 142"/>
    <path d="M158 162 A78 78 0 0 1 48 158"/>
    <path d="M32 142 A78 78 0 0 1 36 52"/>
    <!-- Mid arcs -->
    <path d="M62 52 A58 58 0 0 1 144 48"/>
    <path d="M152 68 A58 58 0 0 1 154 132"/>
    <path d="M142 148 A58 58 0 0 1 62 146"/>
    <path d="M50 128 A58 58 0 0 1 52 68"/>
    <!-- Inner arcs -->
    <path d="M78 68 A38 38 0 0 1 124 66"/>
    <path d="M132 82 A38 38 0 0 1 130 120"/>
    <path d="M118 132 A38 38 0 0 1 78 130"/>
    <path d="M68 114 A38 38 0 0 1 70 84"/>
  </g>
  <!-- Circuit nodes -->
  <g fill="#35e6d6" filter="url(#glow)">
    <circle cx="158" cy="38" r="5.5"/>
    <circle cx="172" cy="142" r="5"/>
    <circle cx="48" cy="158" r="5"/>
    <circle cx="36" cy="52" r="4.5"/>
    <circle cx="144" cy="48" r="4.5"/>
    <circle cx="154" cy="132" r="4"/>
    <circle cx="124" cy="66" r="4"/>
    <circle cx="130" cy="120" r="3.5"/>
  </g>
</svg>
